# xmcd
#
# Track frame offsets:
#	150
#	18322
#	34570
#	55185
#	79387
#	100325
#	113777
#	133630
#	151477
#	173257
#
# Disc length: 2630 seconds
#
# Revision: 4
# Processed by: cddbd v1.5.1PL0 Copyright (c) Steve Scherf et al.
# Submitted via: CDDB.pm 1.12
#
DISCID=720a440a
DTITLE=Indigo Girls - Indigo Girls
DYEAR=1989
DGENRE=Blues
TTITLE0=Closer To Fine
TTITLE1=Secure Yourself
TTITLE2=Kid Fears
TTITLE3=Prince of Darkness
TTITLE4=Blood and Fire
TTITLE5=Tried To Be True
TTITLE6=Love's Recovery
TTITLE7=Land of Canaan
TTITLE8=Center Stage
TTITLE9=History of Us
EXTD=
EXTT0=
EXTT1=
EXTT2=
EXTT3=
EXTT4=
EXTT5=
EXTT6=
EXTT7=
EXTT8=
EXTT9=
PLAYORDER=
